<?xml version="1.0" standalone="no"?>
<!DOCTYPE svg PUBLIC "-//W3C//DTD SVG 20010904//EN"
 "http://www.w3.org/TR/2001/REC-SVG-20010904/DTD/svg10.dtd">
<svg version="1.0" xmlns="http://www.w3.org/2000/svg"
 width="444.000000pt" height="240.000000pt" viewBox="0 0 444.000000 240.000000"
 preserveAspectRatio="xMidYMid meet">

<g transform="translate(0.000000,240.000000) scale(0.100000,-0.100000)"
fill="#000000" stroke="none">
<path d="M514 1880 c-85 -27 -92 -93 -30 -285 66 -204 104 -255 203 -271 57
-9 66 6 53 96 -11 77 -56 250 -69 263 -5 5 5 -43 20 -105 16 -62 31 -135 35
-163 l5 -50 -23 28 c-13 15 -29 27 -37 27 -7 0 -11 9 -9 20 2 10 -6 26 -17 33
-16 13 -17 17 -6 30 11 14 7 19 -32 37 -54 25 -64 44 -35 64 l21 15 -21 26
c-26 32 -19 52 19 60 22 5 29 12 29 30 0 37 23 48 53 25 14 -11 39 -20 56 -20
27 0 31 -3 31 -28 0 -32 16 -52 42 -52 23 0 23 -22 -2 -62 -25 -41 -25 -45 0
-53 27 -9 25 -27 -5 -55 -14 -13 -21 -26 -15 -30 6 -4 3 -25 -7 -58 -9 -28
-14 -55 -10 -59 14 -14 90 75 173 203 46 72 84 140 84 151 0 29 -36 58 -121
97 -163 75 -312 109 -385 86z"/>
<path d="M201 1671 c-28 -30 -91 -141 -91 -160 0 -7 23 -11 62 -11 34 0 81 -7
104 -16 38 -14 44 -14 73 0 30 16 31 16 31 -3 0 -11 3 -27 6 -36 6 -14 3 -14
-29 1 -35 17 -37 17 -95 -9 -61 -28 -122 -34 -165 -18 -23 9 -25 6 -50 -74
-48 -145 -59 -284 -25 -298 19 -7 266 37 347 62 39 12 83 32 98 46 l28 24 -70
1 c-38 0 -97 7 -130 14 -56 13 -61 13 -87 -6 l-28 -19 9 23 c6 15 5 31 -1 42
-14 26 -1 32 22 11 20 -18 22 -18 93 18 65 34 80 37 150 37 42 0 77 2 77 3 0
2 -9 30 -20 62 -32 92 -109 224 -165 282 -62 65 -100 71 -144 24z"/>
<path d="M1803 1671 c-156 -74 -235 -245 -188 -406 30 -104 93 -176 195 -224
45 -21 70 -26 140 -26 77 0 92 3 152 33 70 34 124 87 159 154 25 49 24 58 -6
58 -17 0 -29 -9 -40 -31 -27 -51 -86 -109 -139 -137 -42 -21 -65 -26 -126 -26
-91 0 -154 28 -216 96 -58 62 -77 119 -72 210 9 165 125 278 289 278 99 0 192
-48 239 -125 17 -27 28 -35 51 -35 33 0 35 6 13 40 -38 57 -103 114 -159 141
-52 25 -72 29 -145 29 -73 0 -94 -4 -147 -29z"/>
<path d="M2594 1682 c-90 -37 -146 -90 -195 -182 -20 -38 -23 -59 -23 -140 -1
-113 18 -163 88 -238 69 -74 148 -106 256 -106 131 0 221 48 292 158 46 71 48
86 9 86 -23 0 -31 -6 -42 -32 -20 -49 -77 -106 -133 -136 -70 -36 -180 -38
-247 -4 -91 44 -169 150 -169 227 l0 35 320 0 320 0 -6 48 c-15 115 -93 222
-199 273 -52 25 -71 29 -145 28 -56 0 -99 -6 -126 -17z m254 -63 c78 -38 136
-111 156 -191 l6 -28 -290 0 c-329 0 -309 -6 -266 85 27 60 100 128 159 149
23 8 72 15 108 15 54 1 76 -4 127 -30z"/>
<path d="M3310 1682 c-37 -20 -70 -72 -70 -110 0 -19 5 -23 26 -20 20 2 29 11
38 38 6 19 22 40 36 47 34 17 125 16 159 -2 33 -16 41 -33 41 -80 0 -51 -37
-75 -116 -75 -62 0 -64 -1 -64 -25 0 -24 3 -25 63 -25 105 -1 161 -30 198
-102 41 -81 13 -185 -63 -235 -38 -26 -49 -28 -138 -28 -88 0 -100 2 -138 27
-45 30 -72 73 -81 128 -5 29 -11 36 -35 38 -29 4 -29 3 -24 -43 8 -64 53 -133
112 -170 48 -29 54 -30 165 -30 128 0 151 7 210 67 102 101 91 264 -23 351
l-42 32 18 30 c37 62 12 152 -53 187 -47 25 -171 25 -219 0z"/>
<path d="M4010 1691 c-82 -25 -169 -99 -209 -177 -49 -94 -46 -234 6 -322 36
-63 99 -121 163 -151 46 -21 69 -25 145 -25 81 0 96 3 150 31 115 59 223 213
150 213 -19 0 -29 -10 -45 -39 -27 -53 -85 -109 -140 -135 -64 -30 -178 -28
-240 3 -61 31 -107 76 -138 136 -23 43 -27 62 -27 135 0 68 5 93 22 125 101
189 346 224 483 68 22 -25 40 -50 40 -54 0 -5 14 -9 30 -9 17 0 30 4 30 8 0 5
-14 30 -32 56 -37 56 -105 109 -167 131 -47 16 -177 19 -221 6z"/>
<path d="M988 1520 c-40 -78 -83 -160 -95 -183 -34 -61 -30 -92 15 -137 37
-37 71 -51 160 -65 28 -5 42 -3 42 4 0 21 -72 156 -101 189 -29 32 -38 62 -20
62 5 0 22 -18 38 -40 45 -64 61 -44 23 30 -11 22 -20 46 -20 55 0 31 20 14 50
-42 l31 -58 -6 45 c-4 25 -9 60 -12 78 -3 17 -1 32 4 32 19 0 33 -26 44 -82
13 -66 29 -77 29 -19 0 58 11 101 26 101 10 0 14 -25 16 -102 3 -117 9 -124
80 -92 70 32 66 4 -12 -70 -55 -52 -70 -71 -65 -86 5 -15 15 -20 46 -20 38 0
39 1 74 71 120 237 64 395 -161 453 -111 29 -103 34 -186 -124z"/>
<path d="M805 1091 c-70 -29 -78 -117 -25 -266 96 -269 170 -329 245 -200 33
56 27 79 -29 104 -51 22 -89 69 -121 148 -21 50 -29 59 -59 68 l-35 10 32 19
c88 52 108 53 152 7 11 -11 57 -53 103 -92 l84 -71 30 28 c59 56 78 151 36
178 -32 20 -288 76 -346 75 -26 0 -56 -4 -67 -8z"/>
<path d="M465 1061 c-151 -25 -349 -95 -394 -140 -57 -57 2 -130 160 -196 35
-15 79 -34 97 -43 29 -13 35 -13 42 -1 11 17 -11 43 -51 59 -16 7 -29 16 -29
21 0 5 -16 16 -37 24 -42 18 -41 25 4 18 19 -3 33 -12 36 -23 2 -10 14 -23 26
-29 19 -11 21 -9 22 21 1 18 3 50 5 70 l3 37 -45 -20 c-25 -10 -49 -19 -53
-19 -4 0 -15 15 -25 33 l-17 32 23 -27 23 -27 55 25 c30 14 83 35 118 46 l62
21 -5 36 c-4 27 -3 31 4 16 22 -46 14 -63 -39 -80 l-50 -17 37 -48 c21 -27 43
-48 48 -46 6 1 10 18 10 36 0 20 8 43 20 56 25 29 33 22 11 -10 -9 -14 -16
-33 -16 -43 0 -10 -7 -36 -14 -58 -18 -50 -7 -66 39 -58 29 5 35 2 49 -25 8
-16 22 -32 31 -35 8 -4 15 -13 15 -22 0 -16 -45 24 -65 59 -6 11 -16 15 -26
11 -28 -11 10 -76 52 -90 27 -9 37 -20 49 -53 14 -40 16 -42 57 -42 60 0 66
16 42 115 -10 44 -25 134 -32 201 -15 130 -28 167 -67 196 -30 22 -105 30
-175 19z"/>
<path d="M2329 878 c-15 -25 -14 -118 2 -118 5 0 9 18 9 40 0 28 5 43 16 47
12 4 13 8 3 14 -10 6 -10 11 0 23 11 13 11 16 -2 16 -8 0 -21 -10 -28 -22z"/>
<path d="M2990 833 c4 -50 9 -69 20 -71 13 -2 14 9 10 65 -4 50 -9 69 -20 71
-13 2 -14 -9 -10 -65z"/>
<path d="M3848 830 c3 -55 7 -70 19 -70 10 0 13 6 9 16 -3 9 -6 40 -6 70 0 36
-4 54 -12 54 -10 0 -12 -19 -10 -70z"/>
<path d="M2008 873 c-2 -10 -1 -38 2 -63 4 -39 8 -45 30 -48 23 -2 24 -1 8 11
-21 16 -24 73 -5 80 10 4 10 6 0 6 -7 1 -13 8 -13 16 0 21 -17 19 -22 -2z"/>
<path d="M4028 873 c-12 -54 24 -134 49 -109 4 4 0 12 -10 17 -21 12 -23 57
-3 65 12 5 11 9 -5 25 -23 23 -26 23 -31 2z"/>
<path d="M1662 848 c-7 -7 -12 -24 -12 -38 0 -14 5 -31 12 -38 15 -15 78 -16
78 -1 0 6 -9 9 -20 6 -44 -11 -67 42 -27 67 14 8 20 8 27 -4 5 -8 12 -11 15
-8 13 12 -6 28 -34 28 -15 0 -32 -5 -39 -12z"/>
<path d="M1772 848 c-15 -15 -16 -60 0 -76 15 -15 65 -16 74 0 5 7 1 9 -13 6
-22 -6 -53 7 -53 22 0 6 16 10 36 10 31 0 35 3 32 23 -2 16 -11 23 -33 25 -17
2 -36 -3 -43 -10z m56 -15 c2 -8 -6 -13 -22 -13 -25 0 -33 10 -19 24 10 10 36
3 41 -11z"/>
<path d="M1878 809 c4 -56 22 -67 22 -14 0 24 6 37 20 45 23 12 27 6 32 -45 2
-18 9 -31 19 -33 14 -3 15 3 8 40 -4 24 -8 46 -9 50 0 4 -21 7 -47 7 l-48 -1
3 -49z"/>
<path d="M2078 809 c4 -53 22 -69 22 -19 0 17 9 37 21 49 l21 19 -34 0 -33 0
3 -49z"/>
<path d="M2162 848 c-15 -15 -16 -60 0 -76 15 -15 65 -16 74 0 5 8 0 9 -16 5
-24 -6 -50 7 -50 24 0 5 16 9 36 9 31 0 35 3 32 23 -2 16 -11 23 -33 25 -17 2
-36 -3 -43 -10z m56 -15 c2 -8 -6 -13 -22 -13 -25 0 -33 10 -19 24 10 10 36 3
41 -11z"/>
<path d="M2392 848 c-7 -7 -12 -24 -12 -38 0 -33 17 -50 51 -50 48 0 71 38 49
81 -12 22 -68 27 -88 7z m62 -14 c20 -19 20 -29 0 -48 -12 -12 -20 -13 -35 -6
-21 12 -25 40 -7 58 16 16 23 15 42 -4z"/>
<path d="M2508 809 c4 -50 22 -70 22 -24 0 14 9 34 20 45 26 26 26 28 -12 28
l-33 0 3 -49z"/>
<path d="M2652 848 c-15 -15 -16 -60 0 -76 15 -15 65 -16 74 0 5 7 1 9 -13 6
-22 -6 -53 7 -53 22 0 6 16 10 36 10 31 0 35 3 32 23 -2 16 -11 23 -33 25 -17
2 -36 -3 -43 -10z m56 -15 c2 -8 -6 -13 -22 -13 -25 0 -33 10 -19 24 10 10 36
3 41 -11z"/>
<path d="M2758 835 c-18 -41 3 -75 46 -75 19 0 38 5 42 11 5 8 -1 10 -20 7
-46 -9 -74 35 -40 63 12 10 20 10 35 1 16 -10 19 -9 19 3 0 11 -10 15 -35 15
-28 0 -38 -5 -47 -25z"/>
<path d="M2868 835 c-18 -40 3 -75 45 -75 40 0 57 15 57 50 0 35 -17 50 -57
50 -26 0 -36 -6 -45 -25z m70 3 c30 -30 -4 -77 -41 -57 -29 17 -15 69 18 69 6
0 16 -5 23 -12z"/>
<path d="M3048 835 c-18 -41 3 -75 47 -75 44 0 65 34 47 75 -9 20 -19 25 -47
25 -28 0 -38 -5 -47 -25z m70 3 c30 -30 -4 -77 -41 -57 -29 17 -15 69 18 69 6
0 16 -5 23 -12z"/>
<path d="M3176 844 c-18 -47 6 -91 44 -81 12 3 20 0 20 -8 0 -16 -25 -26 -45
-19 -8 4 -15 2 -15 -4 0 -16 28 -22 55 -12 21 8 24 16 27 66 2 33 8 59 15 61
17 6 56 -88 43 -101 -6 -6 -15 -12 -20 -12 -23 -3 -24 -5 -11 -13 24 -15 47 4
66 56 10 26 22 52 26 58 13 13 11 25 -4 25 -7 0 -18 -15 -26 -32 l-12 -33 -17
33 c-15 31 -18 32 -78 32 -47 0 -63 -4 -68 -16z m62 -32 c3 -30 1 -33 -20 -30
-23 3 -34 27 -24 54 11 28 41 11 44 -24z"/>
<path d="M3512 848 c-7 -7 -12 -24 -12 -38 0 -14 5 -31 12 -38 15 -15 65 -16
74 0 5 8 0 9 -15 5 -29 -7 -51 1 -51 19 0 9 12 14 35 14 35 0 40 5 29 34 -7
19 -55 21 -72 4z m56 -15 c2 -8 -6 -13 -22 -13 -25 0 -33 10 -19 24 10 10 36
3 41 -11z"/>
<path d="M3622 810 c11 -27 26 -50 33 -50 7 0 22 23 33 50 16 37 18 50 8 50
-7 0 -20 -17 -28 -37 l-14 -38 -13 38 c-7 20 -19 37 -26 37 -11 0 -9 -11 7
-50z"/>
<path d="M3726 839 c-24 -35 0 -79 45 -79 49 0 74 66 35 92 -22 15 -65 8 -80
-13z m68 -5 c9 -8 16 -19 16 -24 0 -10 -29 -40 -39 -40 -27 0 -43 63 -18 73
20 9 25 8 41 -9z"/>
<path d="M3897 833 c11 -75 9 -73 64 -71 39 0 49 4 45 15 -3 8 -6 30 -6 49 0
19 -4 34 -10 34 -5 0 -10 -11 -10 -24 0 -37 -10 -56 -30 -56 -20 0 -30 19 -30
56 0 14 -6 24 -14 24 -9 0 -12 -9 -9 -27z"/>
<path d="M4100 813 c3 -32 10 -49 20 -51 13 -2 15 5 10 45 -3 32 -10 49 -20
51 -13 2 -15 -5 -10 -45z"/>
<path d="M4160 841 c-14 -27 -13 -47 6 -65 18 -19 65 -21 82 -4 15 15 15 61 0
76 -20 20 -76 15 -88 -7z m68 -3 c30 -30 -4 -77 -41 -57 -29 17 -15 69 18 69
6 0 16 -5 23 -12z"/>
<path d="M4280 846 c5 -5 10 -27 10 -48 0 -21 5 -38 10 -38 6 0 10 15 10 34 0
35 21 63 40 51 5 -3 10 -24 10 -46 0 -27 4 -39 14 -39 11 0 13 9 10 38 -9 61
-9 61 -64 60 -35 -1 -47 -5 -40 -12z"/>
<path d="M3396 764 c-9 -22 3 -32 14 -14 12 19 12 30 1 30 -5 0 -12 -7 -15
-16z"/>
<path d="M1965 680 c5 -16 2 -20 -17 -20 -33 0 -48 -18 -48 -56 0 -49 17 -56
110 -45 2 1 -1 6 -8 13 -7 7 -12 38 -12 70 0 46 -3 58 -16 58 -11 0 -14 -6 -9
-20z m0 -75 c0 -23 -4 -30 -20 -30 -21 0 -31 25 -21 51 11 28 41 12 41 -21z"/>
<path d="M2450 690 c0 -5 5 -10 10 -10 6 0 10 5 10 10 0 6 -4 10 -10 10 -5 0
-10 -4 -10 -10z"/>
<path d="M3478 633 c4 -72 14 -95 33 -76 8 8 8 13 0 17 -6 4 -11 34 -11 67 0
42 -4 59 -13 59 -10 0 -12 -17 -9 -67z"/>
<path d="M3708 638 c4 -81 14 -104 21 -54 6 37 32 68 47 53 4 -4 10 -24 13
-44 8 -49 26 -44 22 5 -4 49 -18 65 -53 58 -25 -5 -28 -3 -28 19 0 14 -6 25
-13 25 -10 0 -12 -16 -9 -62z"/>
<path d="M3290 666 c-9 -14 -10 -21 -1 -24 6 -2 11 -21 11 -42 0 -26 5 -40 16
-44 25 -9 30 1 11 22 -21 23 -22 62 -2 62 20 0 19 6 -4 29 -18 18 -18 17 -31
-3z"/>
<path d="M1660 645 c0 -12 4 -13 19 -6 18 10 31 6 31 -11 0 -4 -8 -8 -19 -8
-10 0 -24 -7 -32 -16 -21 -26 1 -49 47 -48 38 1 39 1 35 35 -1 19 -7 42 -12
52 -12 22 -69 24 -69 2z m47 -60 c-4 -8 -13 -15 -22 -15 -21 0 -19 28 3 32 22
5 26 2 19 -17z"/>
<path d="M1768 611 c6 -57 22 -79 22 -29 0 68 56 79 62 12 2 -21 8 -39 15 -41
13 -5 6 75 -9 94 -5 6 -28 11 -52 11 l-43 -1 5 -46z"/>
<path d="M2096 644 c-22 -21 -20 -50 4 -74 21 -21 29 -23 54 -14 25 10 19 25
-7 19 -15 -4 -28 -1 -36 9 -12 14 -9 16 22 16 42 0 52 11 37 40 -13 24 -52 26
-74 4z m54 -15 c0 -5 -9 -9 -20 -9 -22 0 -27 16 -7 23 15 5 27 -1 27 -14z"/>
<path d="M2194 648 c-3 -4 0 -8 5 -8 6 0 11 -21 11 -47 0 -54 17 -48 22 7 2
27 8 36 26 38 20 3 22 -1 22 -37 0 -22 5 -43 11 -46 17 -11 18 -3 11 50 l-7
50 -48 1 c-26 0 -50 -3 -53 -8z"/>
<path d="M2320 651 c0 -6 4 -12 9 -16 5 -3 12 -18 16 -34 3 -16 13 -35 20 -41
11 -10 19 -2 39 39 13 28 20 53 15 57 -5 3 -17 -11 -26 -31 l-17 -36 -18 36
c-17 33 -38 47 -38 26z"/>
<path d="M2447 613 c5 -43 17 -74 26 -62 2 2 1 28 -1 57 -2 33 -8 52 -17 52
-9 0 -11 -13 -8 -47z"/>
<path d="M2504 643 c3 -8 6 -33 6 -54 0 -24 4 -38 10 -34 6 3 10 19 10 36 0
18 7 33 20 41 29 19 25 26 -16 26 -27 0 -34 -3 -30 -15z"/>
<path d="M2596 644 c-25 -24 -20 -61 10 -81 24 -15 29 -15 53 -2 32 18 39 54
15 80 -21 23 -57 25 -78 3z m69 -25 c14 -42 -45 -66 -61 -24 -10 25 4 45 30
45 16 0 27 -7 31 -21z"/>
<path d="M2715 643 c3 -8 5 -33 5 -56 0 -49 17 -39 22 13 2 27 8 36 26 38 20
3 22 -1 22 -37 0 -22 5 -43 11 -46 17 -11 18 -3 11 50 l-7 50 -48 1 c-37 1
-47 -2 -42 -13z"/>
<path d="M2844 643 c4 -8 6 -30 6 -49 0 -19 5 -34 10 -34 6 0 10 12 10 28 0
36 14 56 34 49 11 -5 16 -19 16 -49 0 -50 17 -41 22 12 2 27 7 35 23 35 16 0
21 -8 25 -38 6 -46 26 -50 22 -4 -6 65 -6 65 -93 65 -66 -1 -79 -3 -75 -15z"/>
<path d="M3052 648 c-17 -17 -15 -64 4 -82 16 -17 33 -20 58 -10 27 10 18 22
-15 20 -18 0 -34 5 -36 12 -3 8 6 12 26 12 35 0 50 22 31 45 -15 18 -51 20
-68 3z m58 -19 c0 -5 -11 -9 -25 -9 -26 0 -34 15 -12 23 16 5 37 -3 37 -14z"/>
<path d="M3157 616 c7 -63 16 -76 22 -32 6 37 32 68 47 53 4 -4 10 -24 13 -44
8 -51 27 -49 23 2 -5 54 -15 63 -66 63 l-44 -1 5 -41z"/>
<path d="M3377 653 c-14 -14 -6 -23 12 -14 18 10 31 6 31 -11 0 -4 -8 -8 -19
-8 -10 0 -24 -7 -32 -16 -21 -26 1 -49 47 -48 38 1 39 1 35 35 -1 19 -7 42
-12 52 -10 17 -49 24 -62 10z m40 -68 c-4 -8 -13 -15 -22 -15 -21 0 -19 28 3
32 22 5 26 2 19 -17z"/>
<path d="M3607 642 c-23 -26 -21 -58 5 -76 28 -20 39 -20 64 -1 18 15 17 16
-12 10 -37 -7 -59 13 -49 46 6 17 12 20 37 15 21 -4 28 -2 26 7 -7 20 -52 20
-71 -1z"/>
<path d="M3845 649 c-10 -15 3 -25 16 -12 12 12 39 6 39 -8 0 -5 -9 -9 -19 -9
-11 0 -27 -7 -35 -16 -25 -25 -5 -49 42 -50 l40 0 -5 40 c-3 23 -6 47 -9 54
-4 15 -60 16 -69 1z m53 -61 c-7 -19 -38 -22 -38 -4 0 10 9 16 21 16 12 0 19
-5 17 -12z"/>
<path d="M3955 643 c3 -8 5 -33 5 -56 0 -49 17 -39 22 13 2 27 8 36 26 38 20
3 22 -1 22 -37 0 -40 11 -58 30 -46 7 5 8 11 1 18 -5 7 -11 28 -13 47 -3 35
-4 35 -51 36 -37 1 -47 -2 -42 -13z"/>
<path d="M4088 635 c-8 -19 -8 -32 1 -51 9 -22 17 -25 41 -22 17 3 30 2 30 -2
0 -14 -25 -30 -48 -30 -13 0 -20 -4 -17 -10 10 -16 51 -12 67 8 9 9 18 42 20
73 l4 57 -43 0 c-37 1 -45 -2 -55 -23z m67 -25 c0 -18 -6 -26 -23 -28 -13 -2
-25 3 -28 12 -10 26 4 48 28 44 17 -2 23 -10 23 -28z"/>
<path d="M4222 648 c-28 -28 -4 -98 33 -98 22 0 45 11 45 22 0 6 -7 7 -16 4
-20 -8 -54 2 -54 15 0 5 14 9 30 9 34 0 49 22 30 45 -15 18 -51 20 -68 3z m58
-19 c0 -5 -12 -9 -26 -9 -22 0 -24 2 -14 14 12 15 40 11 40 -5z"/>
<path d="M4332 647 c-13 -15 -5 -30 26 -46 33 -18 28 -35 -9 -27 -27 5 -30 4
-19 -9 15 -18 42 -19 58 -3 20 20 14 37 -19 54 -24 12 -29 18 -18 24 8 5 19 4
26 -2 15 -13 28 -4 18 11 -9 15 -50 14 -63 -2z"/>
<path d="M568 588 c5 -37 17 -48 49 -48 20 0 21 3 11 30 -9 28 -34 50 -56 50
-5 0 -6 -15 -4 -32z"/>
</g>
</svg>
