<?xml version="1.0" standalone="no"?>
<!DOCTYPE svg PUBLIC "-//W3C//DTD SVG 20010904//EN"
 "http://www.w3.org/TR/2001/REC-SVG-20010904/DTD/svg10.dtd">
<svg version="1.0" xmlns="http://www.w3.org/2000/svg"
 width="905.000000pt" height="472.000000pt" viewBox="0 0 905.000000 472.000000"
 preserveAspectRatio="xMidYMid meet">

<g transform="translate(0.000000,472.000000) scale(0.100000,-0.100000)"
fill="#000000" stroke="none">
<path d="M1182 2413 l3 -1338 1372 -3 1373 -2 0 1340 0 1340 -1375 0 -1375 0
2 -1337z m2458 2 l0 -1055 -1085 0 -1085 0 0 1055 0 1055 1085 0 1085 0 0
-1055z"/>
<path d="M1730 3125 l0 -155 30 0 c30 0 30 0 30 59 l0 60 53 3 c48 3 52 5 55
31 3 27 2 27 -52 27 l-56 0 0 35 0 35 65 0 65 0 0 30 0 30 -95 0 -95 0 0 -155z"/>
<path d="M2435 3106 c-246 -57 -432 -218 -515 -445 -147 -403 75 -828 490
-938 98 -25 273 -23 374 6 128 36 229 94 319 183 42 42 77 81 77 87 0 6 -53
46 -118 89 l-117 79 -54 -54 c-36 -37 -78 -67 -130 -91 -70 -34 -83 -37 -166
-37 -110 0 -157 13 -236 68 -114 78 -179 207 -179 356 0 180 86 323 240 399
50 24 66 27 165 27 103 0 114 -2 177 -32 36 -17 90 -54 119 -82 30 -29 59 -49
67 -46 34 13 222 148 222 160 0 7 -35 46 -79 88 -85 81 -195 143 -306 173 -83
22 -274 27 -350 10z"/>
<path d="M5032 3087 c-37 -39 -24 -87 28 -106 53 -18 100 14 100 68 0 56 -87
82 -128 38z"/>
<path d="M6783 3095 c-16 -11 -23 -26 -23 -49 0 -78 110 -98 141 -25 10 26 9
34 -8 57 -24 33 -77 41 -110 17z"/>
<path d="M5355 3033 l-45 -68 42 -3 c38 -3 46 1 76 32 18 20 34 36 37 36 3 0
19 -16 37 -36 30 -31 38 -35 76 -32 l42 3 -45 68 -45 67 -65 0 -65 0 -45 -67z"/>
<path d="M4577 3076 c-91 -34 -163 -109 -187 -196 -15 -53 -12 -140 6 -193 22
-64 91 -139 156 -168 73 -32 182 -33 254 -1 46 21 134 96 123 105 -2 2 -25 18
-51 35 l-47 32 -26 -25 c-56 -57 -133 -69 -205 -32 -66 33 -92 83 -88 169 4
75 21 107 78 146 24 16 47 22 87 22 59 0 84 -9 123 -46 l25 -23 48 31 c26 17
47 36 47 43 0 17 -52 60 -104 87 -52 27 -183 35 -239 14z"/>
<path d="M5409 2897 c-98 -27 -152 -97 -152 -198 0 -130 111 -222 247 -204 64
8 146 50 146 75 0 4 -18 19 -41 34 -31 21 -44 25 -54 16 -21 -18 -75 -30 -105
-23 -29 5 -70 37 -70 53 0 5 65 11 148 12 l147 3 -2 48 c-3 51 -29 112 -59
138 -54 47 -134 65 -205 46z m115 -118 c48 -38 35 -49 -59 -49 -92 0 -100 6
-60 45 30 31 82 33 119 4z"/>
<path d="M5976 2900 c-16 -5 -39 -19 -52 -31 l-24 -22 0 26 c0 26 -2 27 -60
27 l-60 0 0 -200 0 -200 59 0 59 0 4 131 c3 116 5 132 22 145 26 18 66 18 94
-2 21 -14 22 -22 22 -145 l0 -129 66 0 66 0 -3 153 c-4 136 -6 156 -26 188
-33 52 -105 78 -167 59z"/>
<path d="M6428 2896 c-152 -42 -209 -223 -105 -334 81 -87 253 -89 330 -4 17
19 17 20 -32 52 -47 30 -52 31 -73 16 -38 -27 -95 -21 -129 13 -81 81 29 195
131 135 27 -16 29 -16 74 16 45 30 47 33 30 51 -45 50 -151 76 -226 55z"/>
<path d="M7165 2901 c-101 -25 -165 -104 -165 -203 1 -155 185 -259 308 -173
21 15 22 15 22 -4 0 -19 6 -21 60 -21 l60 0 0 200 0 200 -60 0 c-53 0 -60 -2
-60 -20 0 -19 -1 -19 -32 -1 -40 23 -93 31 -133 22z m117 -122 c26 -14 48 -67
41 -102 -13 -65 -114 -91 -167 -42 -39 36 -37 94 5 129 33 28 85 34 121 15z"/>
<path d="M7660 2895 c-58 -18 -90 -52 -97 -103 -8 -59 30 -96 131 -130 44 -15
81 -31 83 -37 5 -17 -11 -33 -39 -40 -21 -5 -33 -1 -53 19 -22 22 -35 26 -81
26 -53 0 -55 -1 -49 -22 35 -120 218 -157 312 -63 73 73 28 155 -105 194 -56
17 -72 26 -72 40 0 35 51 42 77 11 14 -15 30 -20 71 -20 54 0 54 0 47 28 -9
40 -31 70 -63 85 -43 23 -112 27 -162 12z"/>
<path d="M5030 2700 l0 -200 60 0 60 0 0 200 0 200 -60 0 -60 0 0 -200z"/>
<path d="M6770 2700 l0 -200 60 0 60 0 0 200 0 200 -60 0 -60 0 0 -200z"/>
<path d="M5446 2304 c-21 -21 -20 -47 2 -67 36 -33 92 -13 92 31 0 16 -5 33
-12 40 -17 17 -64 15 -82 -4z"/>
<path d="M6030 2030 l0 -290 40 0 c36 0 40 2 40 25 l0 26 30 -23 c43 -32 134
-37 186 -10 45 23 65 43 89 91 25 51 17 146 -17 198 -57 86 -196 108 -266 42
l-22 -20 0 126 0 125 -40 0 -40 0 0 -290z m272 -7 c83 -73 37 -203 -72 -203
-47 0 -90 27 -107 67 -25 62 -4 113 62 152 27 16 92 7 117 -16z"/>
<path d="M4452 2081 l3 -219 31 -39 c77 -97 234 -112 323 -30 53 49 61 85 61
305 l0 202 -45 0 -45 0 0 -195 c0 -216 -6 -242 -60 -270 -60 -31 -149 -5 -170
51 -6 14 -10 113 -10 220 l0 194 -46 0 -45 0 3 -219z"/>
<path d="M5030 2020 l0 -280 155 0 155 0 0 40 0 40 -110 0 -110 0 0 240 0 240
-45 0 -45 0 0 -280z"/>
<path d="M5713 2111 c-56 -26 -79 -70 -64 -122 13 -44 37 -61 121 -86 35 -10
68 -26 74 -36 18 -28 -5 -52 -52 -55 -34 -3 -46 2 -66 22 -17 19 -33 26 -60
26 -34 0 -37 -2 -31 -22 19 -64 72 -98 149 -98 93 0 146 42 146 115 0 52 -35
88 -100 105 -86 21 -101 31 -98 58 5 39 51 51 89 23 29 -22 99 -29 99 -11 0
30 -33 69 -70 84 -52 21 -85 20 -137 -3z"/>
<path d="M6650 2118 c-52 -18 -105 -77 -119 -132 -33 -134 57 -246 196 -246
156 1 244 154 170 297 -35 68 -162 109 -247 81z m126 -84 c45 -22 68 -65 61
-117 -8 -57 -43 -89 -106 -95 -47 -4 -53 -2 -86 31 -29 29 -35 42 -35 79 0 51
21 85 64 104 41 18 61 17 102 -2z"/>
<path d="M7145 2118 c-49 -18 -84 -47 -106 -90 -21 -40 -27 -116 -14 -160 12
-40 55 -87 97 -109 54 -28 144 -23 188 9 l30 23 0 -26 c0 -23 4 -25 40 -25
l40 0 0 190 0 190 -40 0 c-32 0 -40 -4 -40 -19 0 -17 -3 -17 -47 5 -49 25 -99
29 -148 12z m156 -104 c98 -94 -18 -243 -140 -179 -37 19 -65 77 -57 119 6 31
45 77 76 89 32 13 92 -1 121 -29z"/>
<path d="M5442 1933 l3 -188 40 0 40 0 3 188 2 187 -45 0 -45 0 2 -187z"/>
</g>
</svg>
