<?xml version="1.0" standalone="no"?>
<!DOCTYPE svg PUBLIC "-//W3C//DTD SVG 20010904//EN"
 "http://www.w3.org/TR/2001/REC-SVG-20010904/DTD/svg10.dtd">
<svg version="1.0" xmlns="http://www.w3.org/2000/svg"
 width="3508.000000pt" height="1241.000000pt" viewBox="0 0 3508.000000 1241.000000"
 preserveAspectRatio="xMidYMid meet">

<g transform="translate(0.000000,1241.000000) scale(0.100000,-0.100000)"
fill="#000000" stroke="none">
<path d="M2132 9289 c-28 -14 -51 -36 -67 -64 l-25 -42 0 -985 0 -985 23 -34
c28 -41 78 -76 122 -85 79 -14 172 44 194 121 7 28 11 305 11 893 l0 852 235
0 c215 0 239 2 275 20 63 32 85 73 85 155 0 82 -22 123 -85 155 -37 19 -60 20
-382 20 -329 0 -345 -1 -386 -21z"/>
<path d="M6848 9290 c-20 -11 -46 -33 -57 -48 -18 -26 -156 -340 -231 -527
-15 -39 -67 -159 -114 -268 -87 -199 -97 -237 -75 -294 13 -34 55 -80 91 -99
41 -21 114 -18 160 8 47 27 53 39 166 298 45 102 121 277 171 390 l90 205 103
5 c110 6 128 12 169 57 39 41 49 66 49 119 0 61 -35 122 -88 152 -37 21 -51
22 -218 22 -157 -1 -183 -3 -216 -20z"/>
<path d="M11130 9288 c-103 -52 -128 -180 -53 -269 51 -60 41 -59 633 -59 596
0 580 -2 637 63 56 64 56 154 1 221 -56 68 -39 66 -636 66 l-538 0 -44 -22z"/>
<path d="M14975 9296 c-86 -39 -128 -142 -91 -229 15 -37 76 -94 109 -102 12
-3 148 -5 303 -3 l281 3 36 28 c54 41 70 78 65 151 -4 74 -31 117 -88 146 -36
19 -60 20 -312 20 -206 -1 -280 -4 -303 -14z"/>
<path d="M18625 9299 c-371 -36 -738 -169 -1063 -386 -69 -46 -151 -105 -181
-130 -106 -89 -253 -238 -267 -270 -45 -105 22 -228 131 -241 85 -9 106 2 212
105 320 312 661 484 1108 559 83 14 200 18 683 21 l582 5 0 -244 c0 -215 3
-248 19 -284 22 -48 59 -80 113 -96 74 -22 165 20 204 94 11 22 14 97 14 389
0 346 -1 363 -21 398 -11 20 -36 48 -56 61 l-37 25 -675 1 c-372 1 -716 -2
-766 -7z"/>
<path d="M21694 9303 c-37 -7 -103 -71 -114 -111 -6 -22 -10 -194 -10 -437 0
-243 4 -415 10 -437 14 -50 79 -105 135 -113 82 -13 166 34 194 108 7 18 11
144 11 338 l0 309 748 0 c718 0 748 1 778 19 125 76 119 253 -10 312 -39 18
-83 19 -881 17 -462 0 -850 -3 -861 -5z"/>
<path d="M10045 8892 c-85 -52 -246 -264 -335 -442 -180 -359 -209 -806 -79
-1190 32 -95 51 -125 99 -157 39 -27 125 -31 169 -8 40 20 78 69 92 115 11 37
9 50 -25 151 -54 164 -69 267 -64 434 10 294 118 558 316 777 77 85 85 100 85
163 0 72 -34 129 -95 161 -39 20 -127 18 -163 -4z"/>
<path d="M2755 8758 c-51 -11 -95 -42 -126 -86 l-24 -36 0 -1661 0 -1661 28
-42 c15 -23 46 -52 70 -64 l42 -23 1003 -3 c717 -2 1015 1 1045 9 54 14 121
80 137 136 27 89 -20 196 -103 234 -40 18 -78 19 -877 19 -798 0 -837 1 -877
19 -79 36 -73 -93 -73 1528 0 1016 -3 1460 -11 1488 -28 104 -131 166 -234
143z"/>
<path d="M7256 8755 c-100 -26 -55 67 -836 -1710 -437 -992 -715 -1636 -718
-1662 -2 -23 -1 -58 2 -78 8 -43 68 -113 113 -132 76 -31 190 -3 234 58 11 16
281 622 600 1347 354 807 587 1324 600 1335 28 23 90 22 115 -1 11 -11 273
-597 583 -1303 310 -706 574 -1305 587 -1330 57 -115 191 -153 294 -85 59 39
83 93 78 175 -4 62 -49 169 -712 1676 -390 886 -714 1620 -722 1632 -41 66
-135 99 -218 78z"/>
<path d="M15400 8738 c-24 -13 -58 -40 -74 -61 l-31 -39 -3 -1667 -2 -1668 23
-44 c59 -111 213 -136 311 -50 10 9 28 34 40 56 l21 40 3 1620 c2 1196 0 1634
-8 1674 -14 61 -65 126 -117 148 -48 20 -113 16 -163 -9z"/>
<path d="M10907 8724 c-671 -121 -1032 -833 -722 -1421 159 -301 451 -496 800
-533 50 -5 326 -10 615 -10 439 0 535 -3 584 -15 204 -53 378 -227 431 -430
19 -76 19 -214 0 -289 -42 -162 -166 -313 -317 -384 -45 -22 -107 -45 -136
-51 -34 -7 -223 -11 -523 -11 -325 0 -484 -4 -517 -12 -64 -16 -126 -79 -140
-142 -22 -105 40 -209 140 -234 60 -15 898 -16 1018 -2 245 30 462 139 625
312 129 137 213 300 252 487 19 95 13 328 -11 416 -91 330 -328 587 -641 695
-151 52 -151 52 -805 59 l-615 6 -67 26 c-190 74 -325 214 -380 394 -28 91
-30 234 -4 320 70 236 260 400 503 435 38 5 320 10 633 10 530 0 568 2 606 19
49 22 87 69 104 128 25 83 -24 187 -104 224 -39 17 -76 19 -646 18 -476 -1
-622 -4 -683 -15z"/>
<path d="M18710 8733 c-258 -21 -584 -133 -807 -279 -181 -117 -371 -300 -495
-474 -277 -389 -383 -900 -287 -1374 141 -694 695 -1244 1395 -1385 192 -39
277 -42 915 -39 l616 3 48 30 c32 20 56 45 72 74 l23 44 0 441 c0 409 -2 444
-19 482 -24 52 -73 90 -137 105 -102 23 -207 -43 -233 -146 -6 -26 -11 -142
-11 -285 0 -282 -4 -300 -77 -332 -42 -19 -66 -19 -536 -15 -454 3 -499 5
-585 25 -283 63 -505 184 -702 382 -204 204 -337 454 -386 730 -23 127 -23
353 0 480 48 266 172 510 360 708 120 125 235 210 391 287 247 123 376 145
838 145 l325 0 53 28 c43 22 59 38 81 81 16 31 28 69 28 91 0 22 -12 60 -28
91 -22 43 -38 59 -81 81 l-53 28 -332 -2 c-182 -1 -351 -3 -376 -5z"/>
<path d="M22257 8725 c-50 -17 -85 -50 -108 -100 -18 -38 -19 -106 -19 -1660
0 -1546 1 -1622 19 -1660 23 -51 79 -101 128 -114 53 -15 2313 -15 2366 0 52
14 112 71 133 125 33 86 -5 191 -86 239 -34 20 -50 20 -1052 25 -1008 5 -1017
5 -1045 26 -15 11 -36 36 -45 55 -17 32 -18 115 -18 1303 0 1265 0 1268 21
1305 39 71 -41 65 1079 71 1005 5 1015 5 1055 26 22 11 54 40 70 63 26 37 30
51 30 111 0 60 -4 74 -30 111 -16 23 -48 52 -70 63 -40 21 -45 21 -1215 23
-977 2 -1181 0 -1213 -12z"/>
<path d="M18632 7189 c-48 -24 -87 -74 -103 -133 -26 -94 45 -210 143 -234 33
-9 210 -12 592 -12 l546 0 0 -30 c0 -17 7 -47 15 -68 63 -149 265 -165 350
-27 l30 48 0 166 c0 192 -10 223 -84 276 l-43 30 -701 3 c-700 2 -702 2 -745
-19z"/>
<path d="M22880 7188 c-24 -13 -58 -40 -74 -61 -28 -35 -31 -46 -31 -111 0
-62 4 -78 28 -114 15 -23 46 -52 70 -64 l42 -23 650 -3 c358 -2 673 0 701 3
98 12 173 84 182 174 8 89 -35 167 -113 202 -38 17 -82 19 -725 19 l-686 0
-44 -22z"/>
<path d="M21689 6867 c-46 -31 -75 -78 -84 -134 -7 -50 2 -1004 11 -1059 6
-43 65 -99 118 -113 65 -16 111 -4 164 44 l47 43 9 511 c4 281 5 536 1 566
-12 102 -79 165 -175 165 -43 0 -65 -6 -91 -23z"/>
<path d="M14805 6853 c-41 -21 -65 -43 -80 -73 -11 -21 -15 -227 -20 -1020 -7
-916 -6 -998 9 -1035 9 -22 27 -50 39 -64 46 -49 61 -51 443 -51 l357 0 44 25
c113 67 110 238 -5 303 -38 21 -49 22 -291 22 l-251 0 0 897 0 897 -26 39
c-45 68 -150 97 -219 60z"/>
<path d="M7537 6606 c-47 -17 -81 -47 -101 -91 -31 -66 -23 -100 90 -352 58
-131 162 -364 230 -518 133 -300 149 -325 224 -345 104 -28 207 43 218 149 4
45 -5 70 -113 317 -200 457 -326 738 -347 771 -38 64 -129 95 -201 69z"/>
<path d="M13380 6341 c-41 -13 -69 -34 -96 -73 -22 -32 -26 -52 -34 -162 -19
-260 -95 -468 -245 -668 -170 -226 -439 -394 -727 -454 -70 -15 -161 -19 -578
-23 l-495 -6 -33 -23 c-101 -73 -94 -235 13 -297 l44 -27 513 5 c561 4 575 6
791 73 605 190 1041 756 1074 1394 5 114 4 129 -15 165 -25 50 -50 73 -99 91
-42 15 -75 16 -113 5z"/>
<path d="M26228 5739 c-16 -9 -18 -32 -18 -261 l0 -251 -44 41 c-86 80 -211
82 -310 7 -85 -65 -121 -170 -114 -340 3 -91 9 -120 29 -165 35 -75 70 -114
131 -144 92 -46 196 -32 273 35 30 27 35 28 35 12 0 -35 29 -63 65 -63 67 0
65 -16 65 572 0 515 -1 529 -20 548 -21 21 -64 26 -92 9z m-95 -554 c59 -41
71 -73 75 -213 5 -139 -2 -166 -54 -212 -73 -64 -161 -62 -229 5 -43 44 -55
87 -55 203 0 95 13 147 48 186 55 62 149 75 215 31z"/>
<path d="M30802 5734 l-22 -15 0 -538 c0 -508 1 -539 18 -554 22 -20 73 -22
90 -5 7 7 12 28 12 47 l0 35 38 -36 c49 -48 98 -68 169 -68 97 1 186 57 232
149 48 92 53 313 11 409 -77 173 -285 226 -408 103 l-32 -33 0 246 c0 242 0
245 -22 260 -12 9 -32 16 -43 16 -11 0 -31 -7 -43 -16z m347 -539 c41 -21 79
-69 92 -118 16 -60 7 -224 -14 -264 -56 -106 -169 -131 -257 -57 -52 44 -60
71 -60 201 0 103 3 125 23 163 30 60 76 90 139 90 27 0 62 -7 77 -15z"/>
<path d="M27350 5647 c-56 -28 -48 -110 13 -130 36 -12 69 2 93 38 14 21 14
30 5 54 -12 27 -47 51 -74 51 -7 0 -23 -6 -37 -13z"/>
<path d="M26891 5310 c-24 -11 -59 -36 -77 -56 l-34 -35 0 40 c0 44 -18 61
-64 61 -56 0 -56 -3 -56 -354 0 -300 1 -324 18 -339 25 -22 75 -21 95 1 15 16
17 46 17 213 0 107 5 211 11 232 12 43 59 101 100 123 15 7 53 14 84 14 82 0
118 43 79 98 -13 18 -24 22 -72 22 -35 0 -74 -8 -101 -20z"/>
<path d="M28753 5311 c-102 -35 -172 -114 -194 -220 -18 -87 -7 -255 21 -318
26 -61 82 -116 149 -147 39 -18 65 -21 161 -21 108 0 118 2 166 28 66 37 83
66 60 102 -21 32 -44 32 -109 -1 -91 -47 -221 -31 -279 33 -26 28 -48 88 -48
128 l0 35 201 0 201 0 29 29 c25 26 29 37 29 87 0 90 -17 132 -80 196 -43 43
-69 60 -110 72 -69 21 -132 20 -197 -3z m191 -110 c71 -44 102 -167 46 -182
-14 -4 -89 -7 -167 -8 l-143 -1 0 33 c0 80 34 135 105 169 48 22 112 18 159
-11z"/>
<path d="M29678 5321 c-40 -13 -96 -49 -113 -74 -15 -21 -15 -21 -15 10 0 54
-50 80 -101 53 -18 -10 -19 -25 -19 -345 0 -320 1 -335 19 -345 31 -16 69 -12
91 10 19 19 20 33 20 240 0 200 2 224 20 259 67 133 265 97 300 -55 5 -21 10
-129 10 -240 0 -142 3 -203 12 -212 17 -17 83 -15 97 2 9 11 11 82 9 263 -3
235 -4 250 -25 290 -28 52 -83 106 -131 129 -42 20 -133 28 -174 15z"/>
<path d="M31629 5315 c-15 -8 -29 -21 -32 -28 -3 -8 53 -156 124 -329 123
-302 128 -317 117 -354 -12 -46 -42 -107 -72 -147 -25 -34 -94 -77 -123 -77
-30 0 -45 -24 -41 -66 4 -51 36 -62 115 -39 76 22 144 91 194 195 20 41 96
235 169 431 94 253 131 364 127 381 -10 39 -82 63 -105 36 -5 -7 -49 -128 -97
-268 -48 -140 -88 -256 -89 -257 -2 -2 -44 108 -96 245 -51 136 -99 257 -107
270 -15 25 -46 28 -84 7z"/>
<path d="M27347 5308 c-16 -12 -17 -42 -15 -348 l3 -335 28 -9 c17 -6 37 -6
55 0 l27 9 3 335 c2 306 1 336 -15 348 -9 6 -29 12 -43 12 -14 0 -34 -6 -43
-12z"/>
<path d="M27733 5305 c-13 -9 -23 -26 -23 -38 1 -12 58 -166 128 -341 115
-289 130 -320 154 -328 19 -7 36 -5 55 4 24 11 43 54 155 337 71 178 126 332
123 341 -11 33 -92 54 -112 28 -5 -7 -47 -114 -93 -238 -45 -124 -87 -236 -92
-250 -8 -22 -22 9 -107 235 l-98 260 -34 3 c-19 1 -44 -4 -56 -13z"/>
<path d="M17657 5266 c-77 -28 -117 -86 -117 -168 0 -95 41 -136 229 -232 213
-109 441 -185 686 -228 108 -19 169 -21 597 -25 l478 -5 43 25 c115 67 116
236 2 302 l-40 24 -455 4 c-372 3 -472 7 -550 21 -255 46 -488 128 -685 243
-82 48 -134 58 -188 39z"/>
<path d="M3108 4940 c-56 -30 -82 -73 -86 -145 -4 -77 24 -128 87 -162 l44
-23 605 0 c536 0 608 2 638 16 44 21 80 65 96 115 23 78 -22 172 -99 205 -26
11 -146 14 -640 14 -582 -1 -610 -2 -645 -20z"/>
<path d="M22657 4946 c-52 -19 -83 -50 -103 -102 -31 -82 3 -177 77 -214 38
-20 58 -20 881 -18 l843 3 33 23 c76 55 95 172 38 246 -51 67 0 63 -906 70
-698 5 -831 4 -863 -8z"/>
<path d="M29038 4239 c-17 -9 -18 -46 -18 -553 0 -513 1 -544 18 -559 23 -21
61 -22 90 -1 l22 15 0 538 c0 508 -1 539 -18 554 -21 19 -68 22 -94 6z"/>
<path d="M29518 4239 c-17 -9 -18 -46 -18 -554 0 -481 2 -545 16 -559 22 -22
70 -20 94 4 19 19 20 33 20 548 0 586 2 572 -63 572 -18 0 -40 -5 -49 -11z"/>
<path d="M25960 3821 c-87 -27 -155 -86 -192 -166 -21 -45 -23 -65 -23 -190 0
-126 3 -145 24 -192 27 -61 83 -115 149 -146 39 -18 66 -21 157 -22 98 0 115
3 159 25 28 14 59 37 70 52 18 25 18 28 2 52 -21 33 -47 33 -110 1 -82 -42
-209 -31 -270 23 -28 25 -56 91 -56 135 l0 37 201 0 201 0 29 29 c25 26 29 37
29 87 0 83 -18 130 -73 190 -34 38 -64 59 -103 73 -56 21 -145 27 -194 12z
m157 -112 c56 -27 96 -91 91 -146 l-3 -38 -167 -3 -168 -2 0 38 c0 59 38 122
90 149 54 29 101 29 157 2z"/>
<path d="M26594 3805 c-17 -17 -23 -32 -19 -45 3 -11 47 -79 96 -152 51 -74
87 -138 84 -145 -3 -8 -46 -74 -95 -147 -50 -73 -90 -142 -90 -154 0 -29 38
-62 71 -62 24 0 38 16 115 135 48 74 90 135 93 135 4 0 46 -61 95 -135 80
-123 91 -135 118 -135 28 0 78 38 78 59 0 6 -43 73 -95 150 -53 77 -98 147
-101 154 -3 8 38 76 91 152 52 76 95 146 95 156 0 25 -49 61 -79 57 -21 -2
-42 -28 -108 -128 -45 -69 -86 -126 -91 -128 -5 -1 -47 56 -93 128 -74 117
-85 130 -111 130 -18 0 -39 -10 -54 -25z"/>
<path d="M27549 3814 c-67 -20 -133 -83 -158 -150 -30 -80 -30 -318 -1 -398
27 -70 89 -129 161 -150 110 -33 258 -13 318 43 37 35 39 51 7 88 l-24 28 -58
-29 c-107 -54 -218 -36 -271 44 -21 30 -23 44 -23 175 0 131 2 145 23 175 52
78 164 97 266 46 l53 -27 24 22 c48 45 20 94 -75 129 -61 24 -173 26 -242 4z"/>
<path d="M28350 3821 c-87 -27 -155 -86 -192 -166 -21 -45 -23 -65 -23 -190 0
-126 2 -145 24 -192 27 -61 83 -115 149 -146 39 -18 66 -21 157 -22 98 0 115
3 159 25 28 14 59 37 70 52 18 25 18 28 2 52 -21 33 -47 33 -110 1 -82 -42
-209 -31 -270 23 -28 25 -56 91 -56 135 l0 37 199 0 c195 0 201 1 227 23 22
19 28 34 32 80 7 84 -13 140 -70 202 -35 39 -64 60 -104 74 -56 21 -145 27
-194 12z m160 -114 c53 -28 92 -94 88 -147 l-3 -35 -167 -3 -168 -2 0 38 c0
59 38 122 90 149 55 29 105 29 160 0z"/>
<path d="M30137 3816 c-84 -31 -148 -89 -184 -172 -14 -31 -17 -68 -18 -180 0
-137 1 -142 30 -200 58 -113 177 -171 333 -162 92 5 180 41 202 82 11 22 10
29 -4 51 -21 32 -39 31 -110 -1 -49 -22 -68 -26 -130 -22 -119 6 -177 56 -192
166 l-7 52 201 0 c194 0 202 1 227 23 53 45 51 159 -3 247 -30 50 -103 104
-160 120 -51 14 -139 12 -185 -4z m169 -105 c58 -26 88 -73 89 -136 l0 -50
-167 -3 -168 -2 0 27 c0 135 126 219 246 164z"/>
<path d="M31024 3807 c-28 -14 -60 -37 -72 -52 l-22 -28 0 35 c0 19 -5 39 -12
46 -16 16 -80 16 -96 0 -9 -9 -12 -98 -12 -338 0 -304 1 -328 18 -343 25 -23
68 -21 92 3 19 19 20 33 20 240 0 199 2 225 19 259 63 123 230 110 292 -24 16
-35 19 -67 19 -257 0 -204 1 -218 19 -228 31 -16 69 -12 91 10 19 19 20 33 20
223 0 231 -11 293 -64 366 -73 103 -204 139 -312 88z"/>
<path d="M31862 3811 c-70 -24 -126 -80 -153 -151 -18 -49 -20 -72 -17 -215 3
-141 6 -165 25 -201 54 -102 154 -150 297 -142 161 8 259 96 171 154 -22 14
-27 13 -76 -12 -100 -53 -213 -33 -266 46 -21 30 -23 44 -23 175 0 131 2 145
23 175 52 78 164 97 265 46 l52 -27 25 25 c32 32 31 51 -3 86 -58 57 -215 77
-320 41z"/>
<path d="M32670 3821 c-83 -26 -162 -93 -197 -168 -14 -31 -17 -67 -18 -188 0
-138 2 -154 23 -197 29 -57 88 -113 151 -141 65 -29 198 -35 276 -12 69 20
129 72 118 102 -18 51 -44 55 -117 18 -38 -19 -65 -25 -115 -25 -124 1 -200
61 -209 165 l-4 54 206 3 c197 3 206 4 228 25 31 31 37 126 13 191 -26 67 -96
137 -161 162 -56 20 -146 25 -194 11z m160 -114 c53 -28 92 -94 88 -147 l-3
-35 -167 -3 -168 -2 0 38 c0 59 37 122 89 149 56 29 106 29 161 0z"/>
</g>
</svg>
